<svg preserveAspectRatio="none" width="100%" height="100%" overflow="visible" style="display: block;" viewBox="0 0 90 90" fill="none" xmlns="http://www.w3.org/2000/svg">
<g id="UserSound" clip-path="url(#clip0_0_4)">
<g id="Vector">
</g>
<path id="Vector_2" d="M37.9688 59.0625C49.6185 59.0625 59.0625 49.6185 59.0625 37.9688C59.0625 26.319 49.6185 16.875 37.9688 16.875C26.319 16.875 16.875 26.319 16.875 37.9688C16.875 49.6185 26.319 59.0625 37.9688 59.0625Z" stroke="var(--stroke-0, black)" stroke-width="2" stroke-linecap="round" stroke-linejoin="round"/>
<path id="Vector_3" d="M8.4375 73.125C15.6621 64.5293 25.8609 59.0625 37.9688 59.0625C50.0766 59.0625 60.2754 64.5293 67.5 73.125" stroke="var(--stroke-0, black)" stroke-width="2" stroke-linecap="round" stroke-linejoin="round"/>
<path id="Vector_4" d="M70.3125 24.1664C72.1685 28.5313 73.1251 33.2257 73.1251 37.9687C73.1251 42.7118 72.1685 47.4062 70.3125 51.7711" stroke="var(--stroke-0, black)" stroke-width="2" stroke-linecap="round" stroke-linejoin="round"/>
<path id="Vector_5" d="M80.6344 19.6875C83.1025 25.4663 84.3749 31.685 84.3749 37.9688C84.3749 44.2525 83.1025 50.4712 80.6344 56.25" stroke="var(--stroke-0, black)" stroke-width="2" stroke-linecap="round" stroke-linejoin="round"/>
</g>
<defs>
<clipPath id="clip0_0_4">
<rect width="90" height="90" fill="white"/>
</clipPath>
</defs>
</svg>
